<?xml version="1.0" standalone="no"?>
<!DOCTYPE svg PUBLIC "-//W3C//DTD SVG 20010904//EN"
 "http://www.w3.org/TR/2001/REC-SVG-20010904/DTD/svg10.dtd">
<svg version="1.0" xmlns="http://www.w3.org/2000/svg"
 width="700.000000pt" height="700.000000pt" viewBox="0 0 700.000000 700.000000"
 preserveAspectRatio="xMidYMid meet">
<g transform="translate(0.000000,700.000000) scale(0.100000,-0.100000)"
fill="#000000" stroke="none">
<path d="M2290 6267 c-3 -3 -21 -7 -40 -10 -19 -2 -59 -14 -87 -25 -251 -96
-399 -347 -431 -727 -11 -141 -4 -438 14 -528 2 -12 6 -40 9 -62 5 -41 38
-236 51 -292 5 -25 3 -33 -7 -34 -49 -2 -299 -69 -452 -120 l-149 -49 -30 25
c-214 180 -538 29 -538 -251 0 -36 5 -75 11 -86 9 -17 5 -26 -29 -62 -68 -71
-125 -168 -153 -261 -17 -55 -22 -171 -10 -241 22 -124 131 -309 242 -409 109
-98 207 -169 324 -235 22 -13 59 -33 81 -46 88 -50 166 -39 219 30 24 32 27
43 23 92 -6 70 -27 92 -163 170 -413 236 -541 482 -361 690 l34 39 93 1 c112
0 180 26 244 92 43 45 85 116 85 144 0 11 15 24 38 34 66 28 244 84 362 113
184 46 205 51 211 43 3 -4 22 -63 43 -132 49 -161 173 -512 196 -552 17 -30
12 -43 -63 -190 -142 -278 -259 -552 -348 -820 -48 -143 -116 -393 -124 -453
-2 -16 -9 -50 -15 -75 -39 -169 -48 -515 -16 -665 74 -343 291 -537 601 -537
134 0 308 41 450 107 39 17 75 34 80 36 35 14 194 107 265 156 94 65 130 109
130 160 0 72 -55 140 -116 145 -62 4 -84 -4 -190 -72 -313 -202 -575 -279
-738 -219 -182 68 -249 334 -191 764 17 129 77 369 139 559 51 156 177 465
244 600 l57 116 97 -192 c336 -665 715 -1214 1144 -1657 138 -142 149 -156
151 -193 7 -141 117 -273 253 -303 46 -11 130 -8 163 4 23 9 40 5 110 -28 118
-55 155 -69 222 -86 179 -43 317 -34 455 32 176 84 322 304 357 538 2 17 8 44
12 60 23 92 21 524 -3 650 -2 11 -7 45 -10 75 -34 278 -160 741 -309 1135 -95
250 -260 620 -295 658 -64 71 -193 51 -233 -37 -24 -53 -16 -99 35 -209 52
-110 74 -161 111 -247 15 -36 34 -79 41 -97 120 -274 285 -804 328 -1053 3
-19 8 -46 11 -60 6 -26 32 -201 42 -280 9 -67 9 -376 1 -443 -28 -221 -103
-370 -214 -427 -91 -46 -252 -32 -384 35 l-45 23 2 67 c5 188 -146 338 -335
331 -31 -1 -80 -11 -109 -21 l-52 -19 -88 90 c-232 238 -399 445 -636 791 -32
46 -57 85 -57 87 0 3 -22 37 -48 78 -27 40 -75 119 -108 176 -32 57 -68 117
-78 135 -63 107 -229 434 -299 590 l-57 127 23 43 c115 204 299 489 467 722
78 109 60 103 279 100 234 -4 555 -22 686 -39 17 -3 68 -7 115 -11 47 -4 87
-9 90 -10 3 -2 33 -6 65 -10 33 -3 67 -8 75 -10 8 -2 35 -7 60 -10 25 -3 68
-10 95 -15 28 -5 65 -12 82 -15 360 -59 837 -199 1111 -326 46 -22 86 -39 88
-39 10 0 174 -96 254 -149 112 -74 236 -199 274 -275 33 -70 44 -156 26 -212
-46 -142 -241 -299 -508 -409 -88 -36 -128 -64 -146 -103 -36 -75 -7 -156 69
-194 43 -22 93 -14 193 29 285 123 481 266 596 436 111 164 130 363 51 543
-68 154 -214 310 -415 444 -242 160 -604 312 -1002 421 -81 22 -155 42 -165
44 -10 2 -70 15 -133 29 -135 29 -306 62 -370 71 -25 3 -70 10 -100 15 -68 11
-125 19 -176 25 -21 2 -66 7 -99 11 -33 3 -73 8 -90 10 -16 2 -66 6 -110 9
-44 3 -97 8 -118 10 -44 5 -326 18 -409 19 -66 1 -67 -2 22 98 285 321 685
691 729 672 29 -13 153 -11 192 3 52 17 106 53 147 95 32 34 85 145 76 160
-13 20 148 80 266 99 227 35 351 -56 401 -296 16 -75 18 -119 14 -265 -2 -96
-9 -195 -15 -220 -21 -92 -23 -174 -6 -207 47 -91 160 -109 230 -37 32 33 41
58 60 179 3 17 7 44 10 60 18 115 24 327 11 445 -10 94 -49 239 -86 313 -104
214 -301 331 -548 326 -110 -2 -194 -19 -329 -65 -107 -36 -110 -37 -128 -19
-52 52 -182 81 -274 60 -167 -37 -278 -207 -246 -376 6 -35 5 -37 -81 -106
-203 -164 -465 -423 -685 -678 -15 -16 -65 -77 -112 -134 -47 -58 -92 -106
-100 -107 -8 -1 -74 -5 -148 -9 -73 -3 -144 -8 -158 -10 -14 -1 -65 -6 -115
-9 -49 -4 -101 -9 -115 -11 -56 -9 -196 -25 -216 -25 -11 0 -21 6 -21 13 0 6
-7 48 -16 92 -15 75 -19 98 -32 193 -3 20 -7 46 -10 57 -6 28 -19 258 -19 335
0 248 55 449 152 552 57 61 114 83 212 82 102 -1 256 -53 375 -128 63 -40 152
-102 199 -139 68 -53 103 -69 147 -69 111 2 177 123 119 217 -38 61 -283 233
-440 308 -77 37 -201 80 -261 92 -48 9 -223 18 -229 12z m242 -2034 c-65 -98
-138 -210 -163 -250 -24 -40 -47 -69 -51 -65 -8 9 -150 434 -146 438 8 7 289
41 441 52 l38 3 -119 -178z"/>
<path d="M3439 4138 c-58 -33 -49 -11 -271 -633 -33 -93 -82 -231 -109 -305
-96 -263 -99 -292 -38 -329 35 -21 79 -20 114 3 26 17 34 37 100 246 25 80 50
149 55 154 12 12 440 13 456 1 6 -5 37 -84 68 -174 68 -199 80 -222 130 -239
35 -11 44 -10 82 8 52 26 66 58 48 115 -10 33 -146 393 -199 525 -8 19 -44
116 -80 215 -122 333 -135 362 -167 391 -51 46 -132 56 -189 22z m97 -220 c20
-31 151 -444 143 -448 -11 -7 -316 -6 -323 1 -5 5 102 333 129 394 7 17 15 38
19 48 6 20 22 22 32 5z"/>
</g>
</svg>
