<svg width="1500" height="800" viewBox="0 0 1500 800" xmlns="http://www.w3.org/2000/svg"><title>background</title><g style="mix-blend-mode:luminosity" transform="translate(1 1)" fill="none" fill-rule="evenodd" opacity=".08"><path d="M905.85 232.54a1.5 1.5 0 0 1-1.06-2.56l13.63-13.62a1.5 1.5 0 0 1 2.12 2.12l-13.63 13.63a1.5 1.5 0 0 1-1.06.43zM916.08 233.78a1.5 1.5 0 0 1-1.06-2.56l9.14-9.14a1.5 1.5 0 0 1 2.12 2.12l-9.14 9.14a1.5 1.5 0 0 1-1.06.44zM926.37 234.93a1.5 1.5 0 0 1-1.06-2.56l4.57-4.57a1.5 1.5 0 0 1 2.12 2.12l-4.57 4.57a1.49 1.49 0 0 1-1.06.44z" fill="#FFF" fill-rule="nonzero"/><path d="M372.02 145.82v12.67M378.35 152.16h-12.66M1137.55 145.82v12.67M1143.88 152.16h-12.66M1245.68 292.25v12.66M1252.02 298.58h-12.67M263.89 292.25v12.66M270.22 298.58h-12.67M979.2 230.09v12.67M985.53 236.43h-12.67M530.37 230.09v12.67M536.71 236.43h-12.67M74.28 336.37h12.67M80.62 330.04v12.66M73.62 492.59l12.66.23M80.07 486.37l-.24 12.66M880.24 122.11v20.16M890.32 132.19h-20.16M629.33 122.11v20.16M639.41 132.19h-20.16M754.78.5v20.17M764.87 10.58H744.7M10.58 407.25v20.17M20.67 417.33H.5M1486.95 407.25v20.17M1497.04 417.33h-20.17M1137.55 687.56v-12.67M1131.22 681.22h12.66M372.02 687.56v-12.67M365.69 681.22h12.66M1259.36 501.13v-12.66M1253.02 494.8h12.67M250.21 501.13v-12.66M243.88 494.8h12.66M530.37 587.55v-12.66M524.04 581.22h12.67M979.2 587.55v-12.66M972.86 581.22h12.67M1423.2 335.51h12.66M1429.53 329.18v12.66M1422.53 491.73l12.66.23M1428.98 485.51l-.24 12.66M614.01 687.65v-20.17M603.93 677.56h20.16M864.92 687.65v-20.17M854.84 677.56h20.17M754.78 797.88v-20.16M744.7 787.8h20.17M890.44 475.16v12.66M896.77 481.49h-12.66" stroke="#FFF" stroke-width="3" stroke-linecap="round"/><circle fill="#FFF" fill-rule="nonzero" cx="981.27" cy="395.98" r="3.32"/><path d="M754.78 261.66a8.05 8.05 0 1 1 8.05-8.05 8.06 8.06 0 0 1-8.05 8.05zm0-13.11a5.05 5.05 0 1 0 5.05 5.05 5.06 5.06 0 0 0-5.05-5.04v-.01zM446.64 84.23a8.05 8.05 0 1 1 8.05-8.05 8.06 8.06 0 0 1-8.05 8.05zm0-13.11a5.05 5.05 0 1 0 5.05 5.05 5.06 5.06 0 0 0-5.05-5.05zM1062.92 84.23a8.05 8.05 0 1 1 8.05-8.05 8.06 8.06 0 0 1-8.05 8.05zm0-13.11a5.05 5.05 0 1 0 5.05 5.05 5.06 5.06 0 0 0-5.05-5.05zM103.64 414.23a8.05 8.05 0 1 1 8.05 8.05 8.06 8.06 0 0 1-8.05-8.05zm13.11 0a5.05 5.05 0 1 0-5.05 5.05 5.06 5.06 0 0 0 5.05-5.05zM143 255.01a8.05 8.05 0 1 1 8.05 8.05 8.06 8.06 0 0 1-8.05-8.05zm13.11 0a5.05 5.05 0 1 0-5.05 5.05 5.06 5.06 0 0 0 5.05-5.05zM143 573.37a8.05 8.05 0 1 1 8.05 8.05 8.06 8.06 0 0 1-8.05-8.05zm13.11 0a5.05 5.05 0 1 0-5.05 5.05 5.06 5.06 0 0 0 5.05-5.05zM469.55 305.57a8.05 8.05 0 1 1 8.05-8.05 8.06 8.06 0 0 1-8.05 8.05zm0-13.11a5.05 5.05 0 1 0 5.05 5.05 5.06 5.06 0 0 0-5.05-5.05zM1040.02 305.57a8.05 8.05 0 1 1 8.05-8.05 8.06 8.06 0 0 1-8.05 8.05zm0-13.11a5.05 5.05 0 1 0 5.05 5.05 5.06 5.06 0 0 0-5.05-5.05z" fill="#000" fill-rule="nonzero"/><circle fill="#000" fill-rule="nonzero" cx="1001.48" cy="128.87" r="3.32"/><circle fill="#000" fill-rule="nonzero" cx="564.69" cy="131.55" r="3.32"/><circle fill="#000" fill-rule="nonzero" cx="1137.55" cy="283.78" r="3.32"/><circle fill="#000" fill-rule="nonzero" cx="372.02" cy="283.78" r="3.32"/><circle fill="#000" fill-rule="nonzero" cx="849.78" cy="53.2" r="3.32"/><circle fill="#000" fill-rule="nonzero" cx="659.78" cy="53.2" r="3.32"/><circle fill="#000" fill-rule="nonzero" cx="823.4" cy="188.52" r="3.32"/><circle fill="#000" fill-rule="nonzero" cx="686.17" cy="188.52" r="3.32"/><path d="M754.79 551.71a8.05 8.05 0 1 1-8.05 8.05 8.06 8.06 0 0 1 8.05-8.05zm0 13.11a5.05 5.05 0 1 0-5.05-5.05 5.06 5.06 0 0 0 5.05 5.05zM1062.93 729.15a8.05 8.05 0 1 1-8.08 8.08 8.06 8.06 0 0 1 8.08-8.08zm0 13.11a5.05 5.05 0 1 0-5.08-5.03 5.06 5.06 0 0 0 5.08 5v.03zM446.65 729.15a8.05 8.05 0 1 1-8.05 8.05 8.06 8.06 0 0 1 8.05-8.05zm0 13.11a5.05 5.05 0 1 0-5.05-5.05 5.06 5.06 0 0 0 5.05 5.02v.03zM1040.02 510.34a8.05 8.05 0 1 1-8.05 8.05 8.06 8.06 0 0 1 8.05-8.05zm0 13.11a5.05 5.05 0 1 0-5.05-5.05 5.06 5.06 0 0 0 5.05 5.04v.01zM469.55 505.28a8.05 8.05 0 1 1-8.05 8.05 8.06 8.06 0 0 1 8.05-8.05zm0 13.11a5.05 5.05 0 1 0-5.05-5.05 5.06 5.06 0 0 0 5.05 5.05zM314.27 402.18a8.05 8.05 0 1 1-8.05 8.05 8.06 8.06 0 0 1 8.05-8.05zm0 13.11a5.05 5.05 0 1 0-5.05-5.05 5.06 5.06 0 0 0 5.05 5.04v.01zM1195.3 402.18a8.05 8.05 0 1 1-8.05 8.05 8.06 8.06 0 0 1 8.05-8.05zm0 13.11a5.05 5.05 0 1 0-5.05-5.05 5.06 5.06 0 0 0 5.05 5.04v.01z" fill="#000" fill-rule="nonzero"/><circle fill="#000" fill-rule="nonzero" cx="532.48" cy="684.51" r="3.32"/><circle fill="#000" fill-rule="nonzero" cx="539.59" cy="464.34" r="3.32"/><circle fill="#000" fill-rule="nonzero" cx="539.59" cy="330.36" r="3.32"/><circle fill="#000" fill-rule="nonzero" cx="979.59" cy="464.34" r="3.32"/><circle fill="#000" fill-rule="nonzero" cx="979.59" cy="330.36" r="3.32"/><circle fill="#000" fill-rule="nonzero" cx="969.27" cy="681.83" r="3.32"/><circle fill="#000" fill-rule="nonzero" cx="360.6" cy="507.34" r="3.32"/><circle fill="#000" fill-rule="nonzero" cx="1148.97" cy="510.65" r="3.32"/><circle fill="#000" fill-rule="nonzero" cx="659.78" cy="749.38" r="3.32"/><circle fill="#000" fill-rule="nonzero" cx="849.78" cy="749.38" r="3.32"/><circle fill="#000" fill-rule="nonzero" cx="686.17" cy="624.86" r="3.32"/><circle fill="#000" fill-rule="nonzero" cx="823.4" cy="624.86" r="3.32"/><path d="M621.41 487.82v-12.66M615.08 481.49h12.66M890.44 305.16v12.66M896.77 311.49h-12.66M621.41 317.82v-12.66M615.08 311.49h12.66" stroke="#FFF" stroke-width="3" stroke-linecap="round"/><circle fill="#FFF" fill-rule="nonzero" cx="540.49" cy="395.98" r="3.32"/><path d="M1281.8 352.98a1.5 1.5 0 0 1-1.06-.44l-1.47-1.47a1.5 1.5 0 0 1 0-2.12l1.47-1.47a1.5 1.5 0 0 1 2.12 0l1.47 1.47a1.5 1.5 0 0 1 0 2.12l-1.47 1.47a1.5 1.5 0 0 1-1.06.44zM1311.13 382.32a1.5 1.5 0 0 1-1.06-.44l-1.47-1.47a1.5 1.5 0 0 1 0-2.12l1.47-1.47a1.5 1.5 0 0 1 2.12 0l1.47 1.47a1.5 1.5 0 0 1 0 2.12l-1.47 1.47a1.5 1.5 0 0 1-1.06.44zM1300.32 369.91a1.5 1.5 0 0 1-1.05-.43l-1.61-1.59a1.5 1.5 0 1 1 2.11-2.13l1.61 1.59a1.5 1.5 0 0 1-1.05 2.57l-.01-.01z" fill="#FFF" fill-rule="nonzero"/><path d="M1310.51 379.99a1.5 1.5 0 0 1-1.05-.43l-1.61-1.59a1.5 1.5 0 1 1 2.11-2.13l1.61 1.59a1.5 1.5 0 0 1-1.05 2.57l-.01-.01zM1284.14 353.83a1.49 1.49 0 0 1-1.06-.44l-1.59-1.6a1.503 1.503 0 0 1 2.13-2.12l1.59 1.6a1.5 1.5 0 0 1-1.06 2.56h-.01z" fill="#FFF" fill-rule="nonzero"/><path d="M1291.667 383.129c-.358-2.077-1.72-9.238-5.014-17.832-.037 0-.108.037-.145.037 0 0-13.929 4.87-18.44 14.68-.216-.178-.537-.394-.537-.394 4.081 3.33 9.274 5.372 14.967 5.372 3.258 0 6.338-.68 9.166-1.861l.003-.002zm-6.626-21.737a66.521 66.521 0 0 0-1.897-3.973c-12.102 3.616-23.705 3.33-24.1 3.33-.036.25-.036.501-.036.751 0 6.016 2.292 11.53 6.016 15.684 6.41-11.422 19.085-15.505 19.085-15.505.323-.108.644-.179.93-.287h.002zm-3.829-7.59c-4.081-7.232-8.415-13.106-8.738-13.534-6.552 3.08-11.422 9.13-12.962 16.399.61 0 10.42.108 21.7-2.865zm24.491 11.422c-.502-.144-7.054-2.22-14.646-1.038 3.08 8.486 4.334 15.398 4.583 16.793 5.264-3.545 8.988-9.203 10.063-15.755zm-28.824-26.533c-.037 0-.037 0-.072.037 0 0 .037-.037.072-.037zm21.126 5.19a23.307 23.307 0 0 0-15.505-5.87c-1.898 0-3.76.25-5.55.68.357.465 4.798 6.302 8.809 13.679 8.843-3.293 12.175-8.378 12.246-8.486v-.002zm7.985 17.37c-.071-5.551-2.042-10.67-5.335-14.681-.071.07-3.832 5.514-13.106 9.309a100.51 100.51 0 0 1 1.576 3.4c.179.395.323.823.502 1.217 8.092-1.038 16.078.718 16.365.752l-.002.002zm4.01.249c0 15.182-12.318 27.5-27.5 27.5s-27.5-12.318-27.5-27.5 12.318-27.5 27.5-27.5 27.5 12.318 27.5 27.5z" fill="#000" fill-rule="nonzero"/><path fill="#FFF" fill-rule="nonzero" d="M745.459 747.33l3.947-3.945 2.778 2.78-3.947 3.945z"/><path d="M760.93 72.96a3 3 0 0 1-.56-2.95l-5.15.94a3 3 0 0 1 .56 2.95l5.15-.94zM767.32 83.92l-2.17-10.69a2.93 2.93 0 0 1-2.94.57l2.17 10.68a3 3 0 0 1 2.94-.56zM776.35 83.65a3 3 0 0 1-1.29-2.71l-7 3.33a3 3 0 0 1 1.07 1.28c.195.45.274.942.23 1.43l6.99-3.33zM1387.52 416.82a8.05 8.05 0 1 1-8.05-8.05 8.06 8.06 0 0 1 8.05 8.05zm-13.11 0a5.05 5.05 0 1 0 5.05-5.05 5.06 5.06 0 0 0-5.05 5.05zM1348.16 576a8.05 8.05 0 1 1-8.05-8.05 8.06 8.06 0 0 1 8.05 8.05zm-13.11 0a5.05 5.05 0 1 0 5.05-5.05 5.06 5.06 0 0 0-5.05 5.05zM1348.16 257.64a8.05 8.05 0 1 1-8.05-8.05 8.06 8.06 0 0 1 8.05 8.05zm-13.11 0a5.05 5.05 0 1 0 5.05-5.05 5.06 5.06 0 0 0-5.05 5.05z" fill="#000" fill-rule="nonzero"/><path d="M954.2 61.09v12.67M960.53 67.43h-12.67M553.37 61.09v12.67M559.7 67.43h-12.66M954.2 731.09v12.67M960.53 737.43h-12.67M553.37 731.09v12.67M559.7 737.43h-12.66" stroke="#FFF" stroke-width="3" stroke-linecap="round"/><path d="M993.056 418.871l18.531 8.132-10.423 11.496-18.46-8.633 10.352-10.995zm36.727 14.374l.524 3.727-15.492 12.49.005.035-.04-.03-.03.04-.005-.035-18.3-7.741-.525-3.727 5.54 2.6 10.428-11.462-.01-.069.04.03.03-.04.01.069 13.216 8.14 4.609-4.027zm-34.338-35.44l13.188 8.177-15.577 12.89-12.976-7.681 15.365-13.387zm31.714 16.273l12.98 7.714-15.331 13.382-13.221-8.173 15.572-12.923zm-8.07-19.597l18.426 8.638-10.356 10.96-18.526-8.097 10.456-11.5zM1274.513 652.43c11.356 13.534 9.59 33.728-3.944 45.083a31.316 31.316 0 0 1-7.815 4.817c-.307-2.245-.833-5.013-1.9-7.323 0 0-.623-1.326-3.928-8.182 2.195.933 5.89.28 8.54-1.944 7.883-6.615 7.219-18.297-.869-27.935-6.08-7.245-17.945-8.874-27.328-1.001-11.619 9.75-10.474 23.04-4.636 29.999 3.536 4.214 8.29 6.64 12.885 5.18.73-.234 1.054-.885.677-1.658-.219-.523-.876-1.82-1.123-2.375-.377-.773-.6-.91-1.503-1.078-1.98-.351-3.879-1.316-5.671-3.453-5.196-6.192-5.228-15.63 2.208-21.87 6.576-5.517 13.59-4.548 18.114.845 5.92 7.054 7.8 15.647 3.139 19.559-2.554 2.142-6.237 1.644-7.826-1.482-1.866-3.712-3.24-8.267-5.116-10.502-1.686-2.01-4.192-2.793-6.427-.918-2.617 2.196-2.447 6.676.606 10.314 0 0 1.956 2.33 4.066 3.223 6.853 13.615 8.035 15.993 8.035 15.993 1.105 2.226 2.816 4.328 4.326 5.999-11.835 3.46-25.1-.097-33.536-10.152-11.356-13.533-9.59-33.727 3.944-45.082 13.533-11.356 33.727-9.59 45.082 3.944zM975.496 182.6c5.51.774 9.353 5.874 8.578 11.384l-4.676 33.273c-.774 5.51-5.875 9.354-11.384 8.58l-6.517-.916 2.898-20.623 6.896.97 2.17-7.896-7.936-1.115.721-5.128c.326-2.323 1.169-3.795 4.532-3.322l4.232.559 1.008-7.174c-.712-.207-3.214-.77-6.124-1.18-6.135-.862-10.89 2.286-11.854 9.15l-.833 5.926-6.931-.974-1.13 8.04 6.931.975-2.898 20.623-18.44-2.592c-5.509-.774-9.352-5.874-8.578-11.384l4.676-33.273c.775-5.51 5.875-9.354 11.385-8.58l33.271 4.676h.003z" fill="#000" fill-rule="nonzero"/><path d="M512.77 206.333a5.189 5.189 0 0 1-4.958-3.582l-2.529-7.714h-12.65l-2.35 7.644a5.246 5.246 0 0 1-6.616 3.389c-2.727-.82-4.276-3.76-3.44-6.55l10.677-33.863c.694-2.154 2.735-3.657 4.964-3.657h5.678c2.242 0 4.283 1.477 4.963 3.592l11.23 33.851c.897 2.768-.59 5.739-3.313 6.627a5.347 5.347 0 0 1-1.656.263zM1220.22 276a5.735 5.735 0 0 1-5.48-3.96l-2.795-8.526h-13.982l-2.597 8.449a5.798 5.798 0 0 1-7.313 3.746c-3.015-.906-4.726-4.155-3.803-7.239l11.802-37.428c.766-2.381 3.022-4.042 5.487-4.042h6.275c2.478 0 4.734 1.632 5.485 3.97l12.412 37.415c.992 3.059-.651 6.342-3.662 7.324a5.91 5.91 0 0 1-1.83.291zM681.293 443.017c-3.346 0-6.282-2.121-7.307-5.279l-3.726-11.368h-18.643l-3.462 11.265a7.73 7.73 0 0 1-9.75 4.994c-4.02-1.208-6.303-5.54-5.071-9.651l15.735-49.905c1.022-3.175 4.03-5.389 7.316-5.389h8.367c3.304 0 6.312 2.177 7.314 5.293l16.548 49.887c1.323 4.078-.868 8.457-4.882 9.765a7.88 7.88 0 0 1-2.44.388z" stroke="#000" stroke-width="3" fill="#FFF" fill-rule="nonzero"/><path d="M941.412 595.788a25.039 25.039 0 0 1-5.84 6.021c.036.506.036 1.011.036 1.514 0 15.397-11.718 33.136-33.136 33.136-6.597 0-12.729-1.91-17.884-5.229.937.108 1.839.145 2.813.145 5.444 0 10.456-1.839 14.46-4.975a11.668 11.668 0 0 1-10.89-8.077c.722.109 1.442.18 2.199.18 1.045 0 2.09-.145 3.065-.397-5.336-1.082-9.34-5.77-9.34-11.43v-.145a11.753 11.753 0 0 0 5.264 1.479 11.64 11.64 0 0 1-5.192-9.7c0-2.164.577-4.146 1.588-5.877a33.101 33.101 0 0 0 24.013 12.187 13.172 13.172 0 0 1-.288-2.668c0-6.417 5.192-11.647 11.647-11.647 3.353 0 6.383 1.406 8.508 3.679a22.945 22.945 0 0 0 7.392-2.813 11.613 11.613 0 0 1-5.12 6.417c2.344-.251 4.615-.902 6.705-1.802v.002zM633.515 677.032c-.684.068-.444.684-.82.684-.34.035-.273-.752.82-.684zm2.971.478c-.34.103-.375-.546-.99-.375.99-.444 1.331.238.99.375zm-11.984 14.576c-.308-.103-.238.51-.546.99-.238.443-.854.784-.376.854.17.035.65-.376.855-.855.17-.58.34-.887.067-.99zm29.19 12.257c0-.614-1.33-1.195-1.877-1.434.922-3.072.512-4.302-.102-7.203-.479-2.185-2.493-5.154-4.062-6.076.409.34 1.16 1.33 1.947 2.834 1.365 2.56 2.73 6.349 1.844 9.49-.341 1.229-1.16 1.401-1.707 1.434-2.39.273-.99-2.869-1.98-7.136-1.127-4.78-2.287-5.121-2.56-5.497-1.4-6.214-2.936-5.598-3.38-7.92-.376-2.082 1.81-3.789-1.16-4.37-.922-.17-2.22-1.092-2.731-1.16-.511-.068-.784-3.448 1.127-3.55 1.877-.138 2.22 2.117 1.877 3.004-.546.887.035 1.228.957.922.752-.238.273-2.22.444-2.493-.479-2.869-1.674-3.277-2.902-3.516-4.71.376-2.595 5.565-3.072 5.087-.684-.717-2.663-.068-2.663-.511.035-2.664-.854-4.2-2.082-4.233-1.366-.035-1.912 1.877-1.98 2.97-.102 1.024.581 3.174 1.093 3.004.34-.103.922-.785.308-.752-.308 0-.785-.751-.855-1.638-.035-.887.309-1.774 1.469-1.742 1.33.035 1.33 2.696 1.195 2.8-.444.307-.99.886-1.058.989-.443.716-1.297.922-1.638 1.228-.582.614-.717 1.298-.273 1.536 1.57.887 1.057 1.911 3.242 1.98 1.433.067 2.493-.206 3.483-.512.751-.238 3.174-.752 3.685-1.639.239-.376.512-.376.684-.273.341.17.409.82-.443 1.025-1.195.34-2.39.99-3.483 1.4-1.057.444-1.4.614-2.39.785-2.253.408-3.926-.82-2.423.649.511.478.99.784 2.287.751 2.87-.102 6.044-3.55 6.35-2.014.067.34-.887.751-1.639 1.127-2.663 1.298-4.54 3.891-6.247 3.004-1.536-.819-3.071-4.608-3.039-2.901.035 2.628-3.447 4.95-1.844 7.955-1.057.273-3.415 5.292-3.756 7.885-.205 1.503.138 3.345-.238 4.37-.51 1.503-2.833-1.433-2.082-5.019.138-.614 0-.751-.17-.443-.922 1.673-.409 4.029.34 5.667.309.717 1.093 1.025 1.674 1.639 1.195 1.365 5.906 4.848 6.725 5.7 1.058.99.752 3.312-1.433 3.55 1.127 2.118 2.22 2.32 2.185 5.77 1.298-.683.784-2.184.238-3.139-.376-.684-.854-.99-.752-1.16.068-.103.752-.684 1.128-.238 1.16 1.298 3.345 1.536 5.667 1.228 2.356-.273 4.881-1.093 6.044-2.97.546-.887.922-1.195 1.16-1.024.273.137.376.751.34 1.774-.034 1.092-.478 2.22-.784 3.14-.308 1.057-.408 1.774.614 1.809.273-1.912.82-3.789.957-5.7.17-2.186-1.4-6.214.308-8.229.444-.546.99-.614 1.742-.614.102-2.73 4.302-2.526 5.7-1.4h-.009zm-21.44-28.233c.138-.854-.273-1.468-.478-1.536-.409-.103-.341.511-.138.443.138 0 .308.206.238.512-.068.408-.035.684.273.684.035 0 .103 0 .103-.103h.002zm14.304 6.725c-.137-.649-.614-.409-1.16-.752-.649-.408-.784-1.092-1.025-.854-.716.784.888 2.423 1.571 2.56.409.068.717-.478.614-.956v.002zm-6.076-7.271c.035-.82-.684-1.228-.854-1.195-.444.034-.308.238-.103.308.273.067.546.546.614 1.057 0 .068.341-.068.341-.17h.002zm1.844-7.955c.035-.17-.408-.376-.716-.614-.273-.273-.547-.512-.82-.512-.684.068-.34.785-.443 1.128-.138.376-.65.684-.308.957.308.238.511-.376 1.16-.614.17-.068.957.035 1.127-.341v-.004zm19.288 45.781c4.2 2.596-1.57 4.746-4.061 6.009-1.947.99-4.54 3.174-5.498 4.096-.716.684-3.685 1.025-5.359.17-1.947-.99-.922-2.56-3.926-2.663-1.503-.035-2.97-.035-4.438-.035-1.297.035-2.595.103-3.926.138-4.507.103-4.95 3.004-7.852 2.901-1.98-.067-4.473-1.638-8.775-2.525-3.004-.614-5.905-.785-6.52-2.117-.613-1.333.752-2.834.855-4.132.103-1.741-1.298-4.097-.273-4.984.887-.784 2.766-.205 3.994-.887 1.298-.751 1.844-1.33 1.844-2.936.478 1.638-.035 2.97-1.093 3.618-.648.409-1.844.614-2.833.511-.785-.068-1.263.035-1.469.341-.308.376-.205 1.058.17 1.947.377.889.82 1.468.752 2.56-.035 1.093-1.262 2.39-1.057 3.313.068.34.409.649 1.263.887 1.365.376 3.858.751 6.281 1.33 2.696.684 5.497 1.912 7.239 1.674 5.189-.717 2.22-6.282 1.4-7.612-4.404-6.896-7.306-11.403-9.626-9.627-.581.479-.614-1.16-.581-1.809.102-2.252 1.227-3.072 1.911-4.813 1.298-3.312 2.288-7.1 4.267-9.047 1.469-1.912 3.789-5.02 4.232-6.658-.375-3.55-.478-7.306-.546-10.583-.068-3.516.479-6.59 4.438-8.74.957-.51 2.22-.716 3.55-.716 2.355-.035 4.984.649 6.657 1.876 2.664 1.98 4.335 6.18 4.132 9.183-.138 2.356.273 4.78 1.025 7.307.887 2.969 2.287 5.051 4.54 7.441 2.696 2.869 4.813 8.502 5.427 12.085.546 3.345-.205 5.427-.922 5.53-1.092.17-1.774 3.618-5.19 3.482-2.184-.102-2.39-1.4-3.003-2.525-.99-1.742-1.98-1.195-2.356.649-.205.922-.067 2.287.239 3.312.614 2.15.408 4.164.035 6.657-.717 4.71 3.312 5.598 6.008 3.345 2.663-2.22 3.242-2.56 6.59-3.72 5.086-1.742 3.38-3.278.648-4.2-2.458-.82-2.56-4.95-1.673-5.735.205 4.437 2.525 5.086 3.482 5.7l-.002.002zM195.317 363.375h-39.305V346.5h-5.625V369h50.555v-22.5h-5.625v16.875zm-33.118-18.42l1.161-5.52 27.527 5.8-1.161 5.486-27.526-5.767zm3.62-13.15l2.357-5.132 25.488 11.918-2.356 5.099-25.488-11.885zm7.068-12.517l3.587-4.324L198.06 333l-3.587 4.325-21.586-18.036zM186.844 306l16.769 22.536-4.5 3.375-16.77-22.536 4.5-3.375zM161.6 357.714v-5.589h28.125v5.589h-28.125zM382.473 656.835c.346.133.51.502.366.821-.84 2.185-3.695 3.615-4.543 3.992-.849.378-3.824 1.544-6.007.705-.333-.106-.499-.477-.365-.821a.632.632 0 0 1 .795-.354c1.39.556 3.6-.046 5.06-.696 1.459-.65 3.358-1.875 3.902-3.294a.632.632 0 0 1 .795-.355l-.003.002zM372.2 655.66a2.589 2.589 0 0 1-1.31 3.41c-1.324.59-2.857.002-3.435-1.298a2.6 2.6 0 0 1 1.323-3.447c1.3-.579 2.832.01 3.422 1.335zm10.47-4.662c.578 1.3-.01 2.832-1.335 3.422a2.589 2.589 0 0 1-3.41-1.309c-.59-1.325-.002-2.857 1.297-3.436a2.6 2.6 0 0 1 3.448 1.323zm5.237-6.143c-.779-1.75-2.836-2.517-4.585-1.738a3.515 3.515 0 0 0-1.856 1.969c-2.809-.528-6.122-.196-9.377 1.125l-1.67-8.245 5.832-1.168a2.589 2.589 0 0 0 3.411 1.309 2.62 2.62 0 0 0 1.324-3.447 2.62 2.62 0 0 0-3.448-1.324c-.928.413-1.476 1.324-1.53 2.27l-6.438 1.308c-.327.05-.524.392-.474.72l1.853 9.085c-3.122 1.548-5.56 3.779-7.046 6.219a3.485 3.485 0 0 0-2.742.046c-1.75.778-2.556 2.82-1.777 4.57.567 1.272 1.782 2.002 3.076 2.06.106.524.277 1.051.502 1.555 2.242 5.038 9.733 6.594 16.705 3.49 6.998-3.116 10.854-9.724 8.611-14.761a6.322 6.322 0 0 0-.858-1.43c.797-.99 1.04-2.37.486-3.615l.001.002zm9.845-3.43c5.842 13.121-.055 28.485-13.177 34.327-13.121 5.842-28.485-.055-34.327-13.177-5.842-13.121.055-28.485 13.177-34.327 13.121-5.842 28.485.055 34.327 13.177zM777.223 85.82l7.752 3.29 9.887-23.29-7.752-3.291-9.887 23.291zm21.192-26.969c.934-2.295.032-4.739-2.62-5.865-2.653-1.126-5.137-.122-6.107 2.16-.94 2.215-.032 4.74 2.587 5.852l.034.014c2.72 1.154 5.166.054 6.106-2.16zm6.698 38.808l7.752 3.29 5.67-13.357c3.034-7.148.619-12.095-4.482-14.26-4.16-1.766-6.99-.235-8.682.948l.067.029 1.439-3.39-7.752-3.29s-.825 2.225-9.887 23.291l7.752 3.29 5.527-13.02c.285-.672.619-1.362 1.032-1.78 1.155-1.134 3.042-2.037 5.19-1.125 2.785 1.183 2.997 3.767 1.657 6.922l-5.285 12.45.002.002zm29.922-26.827l-13.675 32.217c-2.265 5.336-8.433 7.828-13.768 5.563l-32.218-13.676c-5.335-2.264-7.827-8.432-5.562-13.768l13.675-32.217c2.265-5.336 8.433-7.828 13.768-5.563l32.218 13.676c5.335 2.264 7.827 8.432 5.562 13.768zM1246.927 134.08c0 10.185-6.83 17.404-17.111 17.404-9.844 0-17.816-7.972-17.816-17.816 0-9.843 7.972-17.816 17.816-17.816 4.813 0 8.823 1.75 11.934 4.667l-4.836 4.642c-1.313-1.263-3.622-2.747-7.097-2.747-6.076 0-11.035 5.03-11.035 11.253 0 6.222 4.958 11.253 11.035 11.253 7.049 0 9.698-5.08 10.111-7.68h-10.11v-6.126h16.82c.17.9.29 1.798.29 2.965l-.001.001zm21.073-2.966v5.104h-5.08v5.08h-5.104v-5.08h-5.08v-5.104h5.08v-5.08h5.104v5.08h5.08zM324.998 179.002c14.355 0 26.002 11.647 26.002 26.002 0 11.478-7.447 21.229-17.775 24.683-1.32.236-1.794-.576-1.794-1.253 0-.847.035-3.655.035-7.144 0-2.437-.813-3.995-1.76-4.808 5.79-.643 11.883-2.845 11.883-12.832 0-2.845-1.016-5.146-2.674-6.975.271-.678 1.151-3.317-.27-6.906-2.167-.678-7.144 2.674-7.144 2.674a24.442 24.442 0 0 0-13.002 0s-4.977-3.352-7.144-2.674c-1.421 3.589-.541 6.23-.27 6.906-1.66 1.829-2.674 4.13-2.674 6.975 0 9.955 6.06 12.189 11.85 12.832-.745.678-1.421 1.829-1.66 3.487-1.49.678-5.282 1.828-7.549-2.167-1.421-2.473-3.996-2.674-3.996-2.674-2.54-.035-.169 1.59-.169 1.59 1.693.778 2.878 3.792 2.878 3.792 1.523 4.64 8.77 3.082 8.77 3.082 0 2.166.034 4.197.034 4.84 0 .679-.475 1.491-1.794 1.253C306.447 226.23 299 216.48 299 205.002 299 190.647 310.647 179 325.002 179l-.004.002zm-16.15 37.344c.067-.137-.034-.306-.236-.406-.204-.067-.373-.034-.44.068-.067.136.035.305.236.405.17.102.373.067.44-.067zm1.05 1.152c.136-.101.1-.338-.068-.541-.17-.17-.405-.237-.542-.102-.136.102-.102.338.067.542.17.169.406.236.542.101zm1.015 1.524c.17-.137.17-.406 0-.644-.136-.236-.405-.338-.576-.204-.17.102-.17.373 0 .61.169.236.44.337.576.236v.002zm1.422 1.421c.136-.136.067-.44-.137-.643-.236-.237-.541-.271-.678-.102-.169.136-.102.44.137.643.236.236.541.271.678.102zm1.93.847c.068-.203-.136-.44-.44-.541-.27-.068-.576.034-.643.236-.067.201.137.44.44.507.27.102.576 0 .643-.204v.002zm2.133.17c0-.237-.271-.406-.577-.373-.305 0-.541.169-.541.372 0 .237.236.406.576.373.305 0 .542-.169.542-.373zm1.963-.339c-.035-.203-.306-.338-.61-.305-.305.067-.506.27-.474.507.035.204.306.338.61.27.303-.066.506-.27.474-.474v.002zM263.4 736.8c0-5.287-4.313-9.6-9.6-9.6s-9.6 4.313-9.6 9.6 4.313 9.6 9.6 9.6 9.6-4.313 9.6-9.6zm5.174 0c0 8.174-6.6 14.774-14.774 14.774s-14.774-6.6-14.774-14.774 6.6-14.774 14.774-14.774 14.774 6.6 14.774 14.774zm4.052-15.374a3.44 3.44 0 0 1-3.45 3.448 3.442 3.442 0 0 1-3.448-3.448 3.442 3.442 0 0 1 3.449-3.45 3.442 3.442 0 0 1 3.449 3.45zm-18.826-8.252c-4.2 0-13.2-.338-16.987 1.162-1.313.526-2.287 1.162-3.3 2.174-1.013 1.013-1.651 1.988-2.175 3.3-1.5 3.788-1.161 12.788-1.161 16.988 0 4.2-.339 13.2 1.161 16.987.526 1.313 1.162 2.287 2.175 3.3s1.987 1.651 3.3 2.174c3.787 1.5 12.787 1.162 16.987 1.162 4.2 0 13.2.338 16.987-1.162 1.313-.525 2.287-1.161 3.3-2.174s1.651-1.987 2.175-3.3c1.5-3.787 1.161-12.787 1.161-16.987 0-4.2.339-13.2-1.161-16.988-.526-1.312-1.162-2.287-2.175-3.3-1.013-1.012-1.987-1.65-3.3-2.174-3.787-1.5-12.787-1.162-16.987-1.162zm28.8 23.626c0 3.974.038 7.913-.187 11.887-.226 4.613-1.275 8.7-4.649 12.075-3.374 3.374-7.462 4.425-12.074 4.648-3.975.226-7.913.188-11.888.188-3.974 0-7.912.038-11.887-.188-4.613-.225-8.7-1.274-12.074-4.648-3.375-3.375-4.426-7.462-4.649-12.075-.226-3.974-.187-7.913-.187-11.887s-.039-7.913.187-11.887c.226-4.613 1.274-8.7 4.649-12.075 3.374-3.374 7.461-4.425 12.074-4.648 3.975-.226 7.913-.188 11.887-.188 3.975 0 7.913-.038 11.888.188 4.612.225 8.7 1.274 12.074 4.648 3.374 3.375 4.426 7.462 4.649 12.075.225 3.974.187 7.913.187 11.887z" fill="#000" fill-rule="nonzero"/></g></svg>