<svg width="1000" height="680" viewBox="0 0 1000 680" xmlns="http://www.w3.org/2000/svg"><title>Untitled</title><g fill="none" fill-rule="evenodd"><g fill-rule="nonzero"><path d="M642.002 124.641c-11.784-7.337-28.237-11.895-46.246-11.895-36.241 0-65.59 18.12-65.59 40.466 0 20.455 24.457 37.242 56.14 40.132V181.56c-21.344-2.668-37.352-14.34-37.352-28.348 0-15.897 20.9-28.904 46.802-28.904 12.896 0 24.568 3.224 33.017 8.449l-12.006 7.448h37.464v-23.123l-12.229 7.56z" fill="#CCC"/><path fill="#FF6200" d="M586.306 92.736v100.608l18.788-11.784V80.618z"/><g fill="#FF6200"><path d="M667.49 146.864a30.179 30.179 0 0 1 5.64-10.835c2.672-3.117 5.789-5.64 9.648-7.42 3.859-1.93 8.311-2.82 13.357-2.82 5.195 0 9.647.89 13.506 2.82 3.71 1.78 6.976 4.303 9.499 7.42a30.179 30.179 0 0 1 5.64 10.835c1.336 4.007 1.93 8.311 1.93 12.763 0 4.453-.594 8.757-1.93 12.913a30.77 30.77 0 0 1-5.64 10.686c-2.523 3.117-5.788 5.64-9.499 7.42-3.859 1.93-8.311 2.82-13.506 2.82-5.046 0-9.498-.89-13.357-2.82-3.86-1.78-6.976-4.303-9.647-7.42a30.77 30.77 0 0 1-5.64-10.686c-1.336-4.156-1.93-8.46-1.93-12.913 0-4.452.594-8.756 1.93-12.763zm5.64 23.301c.891 3.414 2.375 6.382 4.453 9.202 1.93 2.671 4.453 4.75 7.57 6.53 3.116 1.633 6.678 2.375 10.982 2.375 4.304 0 8.015-.742 11.132-2.375 3.116-1.78 5.491-3.859 7.569-6.53 1.93-2.82 3.413-5.788 4.304-9.202.89-3.413 1.484-6.976 1.484-10.538 0-3.562-.594-6.975-1.484-10.389-.89-3.413-2.375-6.53-4.304-9.202-2.078-2.671-4.453-4.897-7.57-6.53-3.116-1.633-6.827-2.375-11.13-2.375-4.305 0-7.867.742-10.984 2.375-3.116 1.633-5.64 3.859-7.569 6.53-2.078 2.672-3.562 5.789-4.452 9.202a40.709 40.709 0 0 0-1.336 10.39c0 3.561.445 7.124 1.336 10.537zM735.911 145.231v8.905h.148c1.336-3.265 3.563-5.788 6.53-7.57 2.97-1.78 6.383-2.67 10.242-2.67 3.562 0 6.678.593 9.35 1.929 2.671 1.335 4.898 3.116 6.679 5.491 1.632 2.226 2.968 4.898 3.859 7.866.89 2.969 1.335 6.234 1.335 9.499 0 3.414-.445 6.53-1.335 9.499-.89 2.968-2.227 5.64-3.86 7.866-1.78 2.374-4.007 4.155-6.678 5.491-2.672 1.188-5.788 1.93-9.35 1.93-1.781 0-3.414-.297-5.195-.594-1.633-.445-3.265-1.187-4.6-1.93-1.485-.89-2.82-1.929-4.008-3.265a12.941 12.941 0 0 1-2.523-4.452h-.149v26.121h-5.788v-64.116h5.343zm31.465 16.326c-.594-2.523-1.485-4.601-2.672-6.53-1.336-1.781-2.968-3.414-4.898-4.601-1.93-1.188-4.155-1.633-6.975-1.633-3.117 0-5.789.445-7.866 1.633-2.227 1.039-3.86 2.523-5.195 4.304-1.187 1.78-2.078 4.007-2.672 6.382-.445 2.374-.742 4.897-.742 7.569 0 2.523.297 4.898.89 7.272.595 2.375 1.485 4.601 2.82 6.382 1.337 1.93 2.97 3.414 5.047 4.601 2.078 1.188 4.75 1.781 7.718 1.781 2.82 0 5.046-.593 6.975-1.78 1.93-1.188 3.562-2.672 4.898-4.602 1.187-1.78 2.078-4.007 2.672-6.382a29.576 29.576 0 0 0 0-14.396zM783.701 176.695c.594 2.227 1.485 4.156 2.82 5.937a13.26 13.26 0 0 0 4.75 4.304c1.93 1.188 4.304 1.781 6.975 1.781 4.156 0 7.421-1.039 9.796-3.265 2.375-2.226 4.007-5.046 4.898-8.757h5.788c-1.187 5.343-3.414 9.5-6.679 12.32-3.265 2.967-7.866 4.452-13.803 4.452-3.71 0-6.827-.742-9.498-1.93-2.82-1.336-4.898-3.117-6.68-5.491a22.67 22.67 0 0 1-3.71-7.866c-.89-2.969-1.187-6.085-1.187-9.5 0-3.116.297-6.084 1.187-9.053.743-2.968 2.078-5.64 3.71-8.014 1.782-2.375 3.86-4.156 6.68-5.64 2.671-1.336 5.788-2.078 9.498-2.078 3.71 0 6.976.742 9.647 2.227a19.373 19.373 0 0 1 6.53 5.936c1.633 2.523 2.82 5.343 3.563 8.46a34.916 34.916 0 0 1 .89 9.647h-36.065c0 2.078.297 4.304.89 6.53zm28.348-17.513a18.482 18.482 0 0 0-2.968-5.343c-1.336-1.484-2.82-2.82-4.601-3.71-1.93-.89-3.859-1.336-6.234-1.336-2.374 0-4.452.445-6.233 1.336a14.105 14.105 0 0 0-4.601 3.71c-1.336 1.484-2.375 3.265-3.117 5.343-.742 1.93-1.187 4.007-1.484 6.234h30.277c0-2.227-.445-4.304-1.039-6.234zM827.485 145.231v8.015h.148c1.187-2.82 3.117-5.047 5.937-6.828 2.671-1.632 5.788-2.523 9.202-2.523 3.265 0 5.936.446 8.162 1.188 2.227.89 4.008 2.077 5.343 3.71 1.336 1.484 2.227 3.414 2.82 5.64.594 2.226.742 4.75.742 7.57v30.128h-5.64v-29.238c0-2.078-.148-3.86-.593-5.64-.297-1.633-1.039-3.117-1.93-4.453-.89-1.335-2.077-2.226-3.71-2.968-1.484-.742-3.413-1.039-5.64-1.039-2.374 0-4.452.297-6.233 1.187-1.781.742-3.265 1.93-4.453 3.266-1.336 1.484-2.226 3.116-2.968 5.194-.742 1.93-1.04 4.007-1.187 6.382v27.309h-5.64v-46.9h5.64zM870.822 127.273v64.858h-6.085v-64.858zM897.983 127.273c9.944.148 17.365 2.968 22.41 8.31 4.898 5.344 7.422 13.358 7.422 24.044 0 10.835-2.524 18.85-7.421 24.192-5.046 5.344-12.467 8.015-22.411 8.312h-22.411v-64.858h22.41zm-2.969 59.515c4.601 0 8.609-.445 12.022-1.484 3.265-1.04 6.085-2.523 8.312-4.75 2.077-2.226 3.71-5.046 4.749-8.46 1.039-3.413 1.484-7.569 1.484-12.467 0-4.749-.445-8.905-1.484-12.318-1.039-3.562-2.672-6.382-4.75-8.46-2.226-2.226-5.046-3.859-8.31-4.75-3.414-1.038-7.422-1.632-12.023-1.632h-13.209v54.32h13.21z"/></g></g><path d="M264.913 145.896c79.672-5.506 132.499 33.352 162.704 80.697 15.145 23.738 30.005 59.792 30.073 96.836.074 40.25-13.009 75.105-30.073 100.68-17.539 26.285-40.223 47.996-68.628 62.252-47.483 23.83-113.842 24.481-157.307 1.537-48.406-25.553-85.624-62.024-99.473-125.273-5.543-25.312-6.18-58.017 1.542-86.077 1.812-6.582 5.105-13.51 7.711-19.982 12.526-31.102 33.847-58.149 60.147-76.855 10.568-7.516 23.388-14.992 34.7-19.982 14.074-6.209 37.77-12.394 58.604-13.833z" fill="#FFF" fill-rule="nonzero"/><path d="M416.04 327.905c0 75.048-61.04 135.882-136.338 135.882-75.297 0-136.337-60.834-136.337-135.882 0-75.046 61.04-135.885 136.337-135.885 75.296 0 136.338 60.839 136.338 135.885z" fill="#000" fill-rule="nonzero"/><path d="M264.913 145.896c79.672-5.506 132.499 33.352 162.704 80.697 15.145 23.738 30.005 59.792 30.073 96.836.074 40.25-13.009 75.105-30.073 100.68-17.539 26.285-40.223 47.996-68.628 62.252-47.483 23.83-113.842 24.481-157.307 1.537-48.406-25.553-85.624-62.024-99.473-125.273-5.543-25.312-6.18-58.017 1.542-86.077 1.812-6.582 5.105-13.51 7.711-19.982 12.526-31.102 33.847-58.149 60.147-76.855 10.568-7.516 23.388-14.992 34.7-19.982 14.074-6.209 37.77-12.394 58.604-13.833zm-26.99 13.065c-29.592 7.647-51.29 21.347-70.17 36.122-27.224 21.305-44.58 51.037-54.748 86.845-11.313 39.838-4.046 88.047 11.566 118.355 16.19 31.431 37.93 55.83 68.629 73.012 29.867 16.717 71.874 27.451 115.667 19.214 38.909-7.319 68.46-24.213 92.533-49.187 32.209-33.416 58.096-94.962 40.87-159.857-4.606-17.344-10.626-35.42-20.05-50.724-5.092-8.268-12.563-16.4-20.049-24.593-28.25-30.921-73.91-57.567-132.631-53.798-11.175.717-20.996 1.867-31.616 4.611z" fill="#000" fill-rule="nonzero"/><g stroke="#FFF" stroke-width="2"><path d="M287.947 490.873l157.545-157.018M274.174 478.437l158.232-157.702M260.4 466.004l158.921-158.39M246.628 453.569l159.608-159.074M232.855 441.134l160.296-159.76M219.082 428.702l160.983-160.448M205.309 416.264l161.67-161.13M191.536 403.83l162.357-161.816M177.763 391.395l163.042-162.501M163.99 378.96l163.733-163.186M150.217 366.526l164.42-163.872M136.444 354.091l165.108-164.558M122.67 341.656l165.796-165.243M108.897 329.221l166.484-165.927"/><g><path d="M108.844 330.809l160.693 160.165M121.875 317.635l161.006 160.478M134.907 304.46l161.318 160.79M147.938 291.287l161.632 161.1M160.97 278.113l161.943 161.412M174 264.94L336.26 426.662M187.032 251.765L349.602 413.8M200.063 238.592l162.884 162.345M213.095 225.418L376.29 388.075M226.126 212.244L389.635 375.21M239.158 199.07l163.821 163.28M252.189 185.896l164.135 163.591M265.22 172.723l164.448 163.902M278.252 159.55l164.76 164.212"/></g></g><path d="M392.917 208.916c-14.179-14.132-31.612-26.867-52.435-34.584-21.584-8-46-14.743-74.798-12.297-45.872 3.897-78.08 24.41-102.558 48.418-17.145 16.816-30.042 37.422-38.555 61.484-12.5 35.33-11.741 77.03 2.313 112.975 11.988 30.662 31.61 55.392 59.375 74.55 26.103 18.01 63.565 31.977 105.642 28.436 51.249-4.314 88.746-30.52 113.353-60.715 6.296-7.725 12.556-16.457 16.193-26.899 3.563-7.524 5.307-12.639 6.94-15.371 6.835-15.264 10.456-31.368 11.567-49.186 3.416-54.804-17.74-97.611-47.037-126.81zm-15.103 166.97c-.098.21-.186.403-.288.618-2.542 7.251-6.922 13.314-11.324 18.679-17.209 20.967-43.43 39.164-79.269 42.16-29.425 2.458-55.624-7.24-73.877-19.746-15.861-10.868-27.919-24.32-36.374-40.487-.515-.973-5.425-12.248-5.44-12.744-6.698-20.707-7.28-54.003-.404-73.984 4.588-13.335 12.234-27.764 22.362-39.195 13.983-15.785 27.976-25.899 50.122-33.048 10.112-3.265 19.164-6.587 31.615-6.917 30.363-.805 61.281 12.782 77.882 27.668 15.256 13.679 32.643 40.326 37.014 65.326 4.499 25.73-.302 50.854-12.02 71.67z" fill="#000" fill-rule="nonzero"/><path d="M325.04 400.569c-7.477 0-14.038-4.72-16.328-11.743l-8.328-25.289h-41.658l-7.737 25.058a17.268 17.268 0 0 1-16.462 11.954c-1.804 0-3.596-.284-5.327-.844-8.982-2.688-14.082-12.324-11.33-21.468l35.163-111.009c2.283-7.062 9.004-11.987 16.347-11.987h18.697c7.384 0 14.105 4.842 16.344 11.774L341.4 377.983c2.957 9.072-1.94 18.812-10.91 21.721a17.683 17.683 0 0 1-5.45.865z" stroke="#000" stroke-width="6" fill="#FFF" fill-rule="nonzero"/><g fill="#FFF" fill-rule="nonzero"><path d="M186.949 219.863l-.044-.06c-4.385-5.99-3.098-14.368 3.36-19.065 6.457-4.697 14.753-3.379 19.138 2.61l.044.06c4.385 5.989 3.098 14.368-3.36 19.065-6.458 4.697-14.753 3.379-19.138-2.61zm16.622-12.09l-.044-.06c-2.203-3.009-6.306-4.044-9.504-1.717-3.17 2.305-3.416 6.41-1.213 9.42l.044.06c2.204 3.01 6.306 4.045 9.475 1.74 3.2-2.327 3.446-6.433 1.242-9.443zM229.225 180.606l6.59-2.107 18.474 21.404-7.33 2.344-3.21-3.815-9.516 3.042-.349 4.955-7.19 2.299 2.531-28.122zm10.842 13.153l-4.999-6.111-.534 7.88 5.533-1.77zM266.157 187.045l.058-14.498 7.291.03-.057 14.35c-.015 3.725 1.866 5.503 4.753 5.515 2.887.012 4.782-1.678 4.795-5.293l.059-14.534 7.291.029-.057 14.313c-.033 8.337-4.822 11.97-12.188 11.941-7.365-.03-11.977-3.774-11.945-11.853zM316.68 184.512l-7.433-2.261 1.836-5.998 21.734 6.611-1.836 5.998-7.433-2.26-5.726 18.698-6.867-2.089zM352.23 191.233l5.978 3.965-5.371 8.046 7.672 5.089 5.372-8.046 5.978 3.964-14.354 21.498-5.978-3.965 5.455-8.169-7.673-5.09-5.454 8.17-5.978-3.965z"/><g><path d="M373.347 426.236l.045.058c4.612 5.818 3.647 14.241-2.626 19.18-6.273 4.94-14.614 3.939-19.226-1.88l-.046-.058c-4.612-5.818-3.646-14.24 2.626-19.18 6.274-4.939 14.614-3.938 19.227 1.88zm-16.149 12.715l.046.058c2.317 2.924 6.456 3.802 9.564 1.355 3.079-2.424 3.168-6.537.85-9.46l-.046-.059c-2.317-2.923-6.456-3.801-9.535-1.377-3.107 2.447-3.196 6.56-.879 9.483zM332.816 467.147l-6.491 2.394-19.402-20.573 7.22-2.664 3.376 3.672 9.372-3.457.13-4.965 7.08-2.612-1.285 28.205zm-11.413-12.664l5.264 5.885.186-7.896-5.45 2.011zM295.662 462.237l.642 14.484-7.285.32-.635-14.336c-.165-3.722-2.129-5.408-5.013-5.28-2.884.126-4.695 1.905-4.535 5.516l.643 14.52-7.284.32-.634-14.298c-.369-8.329 4.24-12.188 11.598-12.511 7.359-.324 12.146 3.194 12.503 11.265zM245.048 466.973l7.504 2.02-1.64 6.054-21.943-5.903 1.64-6.056 7.505 2.02 5.113-18.878 6.933 1.865zM209.576 461.712l-6.16-3.68 4.986-8.29-7.905-4.722-4.986 8.29-6.159-3.679 13.32-22.15 6.16 3.68-5.062 8.417 7.906 4.722 5.061-8.417 6.16 3.68z"/></g></g><g fill-rule="nonzero"><path fill="#FFF" d="M704.455 458.861l-.198-53.267h-29.703l.198 53.267 14.852 20.396zM674.752 550.149v53.465h29.703v-53.465l-14.851-20.397z"/><path fill="#00F2E6" d="M704.455 550.149l31.288 43.168 23.96-17.426-31.287-43.168-23.96-7.723zM674.752 458.861l-31.485-43.168-23.96 17.426 31.287 43.168 24.158 7.723z"/><path fill="#00B9F1" d="M650.594 476.287l-50.693-16.436-9.109 28.12 50.693 16.633 23.96-7.92zM713.564 512.327l14.852 20.396 50.693 16.435 9.109-28.118-50.693-16.436z"/><path fill="#D63AFF" d="M737.525 504.604l50.693-16.634-9.11-28.119-50.692 16.436-14.852 20.396zM641.485 504.604l-50.693 16.436 9.109 28.118 50.693-16.435 14.852-20.396z"/><path fill="#FB015B" d="M650.594 532.723l-31.287 43.168 23.96 17.426 31.485-43.168V525zM728.416 476.287l31.287-43.168-23.96-17.426-31.288 43.168v25.149z"/></g></g></svg>