<svg width="1000" height="680" viewBox="0 0 1000 680" xmlns="http://www.w3.org/2000/svg"><title>Untitled</title><g fill="none" fill-rule="evenodd"><path d="M110 380h236v236H110z"/><path d="M200.229 558c55.471 0 85.812-46.171 85.812-86.21 0-1.312 0-2.618-.088-3.917A61.522 61.522 0 0 0 301 452.189a59.983 59.983 0 0 1-17.322 4.767 30.38 30.38 0 0 0 13.259-16.759 60.272 60.272 0 0 1-19.151 7.355c-9.349-9.987-24.204-12.431-36.235-5.962-12.032 6.468-18.248 20.242-15.162 33.596-24.25-1.221-46.843-12.728-62.158-31.657-8.005 13.845-3.916 31.556 9.338 40.447a29.83 29.83 0 0 1-13.689-3.792v.384c.004 14.423 10.124 26.845 24.196 29.701a29.977 29.977 0 0 1-13.618.52c3.951 12.343 15.274 20.798 28.177 21.042a60.34 60.34 0 0 1-37.456 12.996c-2.4-.005-4.796-.15-7.179-.437a85.096 85.096 0 0 0 46.229 13.586" fill="#1DA1F2" fill-rule="nonzero"/><g fill-rule="nonzero"><path d="M500.333 322.907c0 17.026-13.32 29.573-29.666 29.573-16.347 0-29.667-12.547-29.667-29.573 0-17.147 13.32-29.574 29.667-29.574 16.346 0 29.666 12.427 29.666 29.574zm-12.986 0c0-10.64-7.72-17.92-16.68-17.92s-16.68 7.28-16.68 17.92c0 10.533 7.72 17.92 16.68 17.92s16.68-7.4 16.68-17.92z" fill="#EA4335"/><path d="M564.333 322.907c0 17.026-13.32 29.573-29.666 29.573-16.347 0-29.667-12.547-29.667-29.573 0-17.134 13.32-29.574 29.667-29.574 16.346 0 29.666 12.427 29.666 29.574zm-12.986 0c0-10.64-7.72-17.92-16.68-17.92s-16.68 7.28-16.68 17.92c0 10.533 7.72 17.92 16.68 17.92s16.68-7.4 16.68-17.92z" fill="#FBBC05"/><path d="M625.667 295.12v53.093c0 21.84-12.88 30.76-28.107 30.76-14.333 0-22.96-9.586-26.213-17.426l11.306-4.707c2.014 4.813 6.947 10.493 14.894 10.493 9.746 0 15.786-6.013 15.786-17.333v-4.253h-.453c-2.907 3.586-8.507 6.72-15.573 6.72-14.787 0-28.334-12.88-28.334-29.454 0-16.693 13.547-29.68 28.334-29.68 7.053 0 12.653 3.134 15.573 6.614h.453v-4.814h12.334v-.013zm-11.414 27.893c0-10.413-6.946-18.026-15.786-18.026-8.96 0-16.467 7.613-16.467 18.026 0 10.307 7.507 17.814 16.467 17.814 8.84 0 15.786-7.507 15.786-17.814z" fill="#4285F4"/><path fill="#34A853" d="M646 264v86.667h-12.667V264z"/><path d="M695.36 332.64l10.08 6.72c-3.253 4.813-11.093 13.107-24.64 13.107-16.8 0-29.347-12.987-29.347-29.574 0-17.586 12.654-29.573 27.894-29.573 15.346 0 22.853 12.213 25.306 18.813l1.347 3.36-39.533 16.374c3.026 5.933 7.733 8.96 14.333 8.96 6.613 0 11.2-3.254 14.56-8.187zM664.333 322l26.427-10.973c-1.453-3.694-5.827-6.267-10.973-6.267-6.6 0-15.787 5.827-15.454 17.24z" fill="#EA4335"/><path d="M393.053 315.213v-12.546h42.28c.414 2.186.627 4.773.627 7.573 0 9.413-2.573 21.053-10.867 29.347-8.066 8.4-18.373 12.88-32.026 12.88-25.307 0-46.587-20.614-46.587-45.92 0-25.307 21.28-45.92 46.587-45.92 14 0 23.973 5.493 31.466 12.653l-8.853 8.853c-5.373-5.04-12.653-8.96-22.627-8.96-18.48 0-32.933 14.894-32.933 33.374 0 18.48 14.453 33.373 32.933 33.373 11.987 0 18.814-4.813 23.187-9.187 3.547-3.546 5.88-8.613 6.8-15.533l-29.987.013z" fill="#4285F4"/></g><g fill-rule="nonzero"><path d="M512.675 78.026l-21.974 14.026 21.974 14.026-21.974 14.026-21.974-14.143 21.974-14.026-21.974-13.909L490.701 64l21.974 14.026zm-22.09 46.52l21.973-14.027 21.974 14.026-21.974 14.026-21.974-14.026zm22.09-18.585l21.974-14.026-21.974-13.909L534.532 64l21.974 14.026-21.974 14.026 21.974 14.026-21.974 14.026-21.857-14.143z" fill="#0061FF"/><path d="M573.688 78.026h17.767c11.337 0 20.688 6.545 20.688 21.506v3.156c0 15.078-8.766 21.857-20.338 21.857h-18.117V78.026zm9.935 8.416v29.571h7.598c6.428 0 10.753-4.208 10.753-13.558V100c0-9.35-4.558-13.558-11.104-13.558h-7.247zm33.78.467h7.948l1.285 8.766c1.52-5.96 5.377-9.117 12.39-9.117h2.455V96.61h-4.091c-8.065 0-10.052 2.806-10.052 10.754v17.298h-9.819V86.91h-.116zm26.065 19.636v-1.051c0-12.624 8.064-19.52 19.051-19.52 11.221 0 19.052 6.896 19.052 19.52v1.051c0 12.39-7.597 19.052-19.052 19.052-12.155-.116-19.051-6.662-19.051-19.052zm28.051-.116v-.935c0-7.013-3.506-11.221-9.116-11.221-5.494 0-9.117 3.857-9.117 11.22v.936c0 6.779 3.506 10.636 9.117 10.636 5.61-.117 9.116-3.857 9.116-10.636zm15.195-19.52h8.182l.935 7.13c1.987-4.792 6.195-8.065 12.39-8.065 9.584 0 15.896 6.896 15.896 19.636v1.052c0 12.39-7.013 18.935-15.896 18.935-5.961 0-10.052-2.688-12.04-7.013v19.052h-9.584l.117-50.727zm27.468 19.52v-.819c0-7.48-3.857-11.22-9-11.22-5.494 0-9.117 4.207-9.117 11.22v.702c0 6.662 3.506 10.87 9 10.87 5.61-.117 9.117-3.74 9.117-10.753zm24.428 11.22l-.818 6.896h-8.415v-50.26h9.584v19.286c2.104-4.909 6.312-7.597 12.273-7.597 9 .117 15.662 6.312 15.662 18.818v1.169c0 12.507-6.312 19.636-15.896 19.636-6.312-.116-10.403-3.039-12.39-7.948zm18.234-11.688v-.935c0-6.896-3.74-10.753-9-10.753-5.376 0-9.117 4.324-9.117 10.87v.818c0 7.013 3.624 11.104 9 11.104 5.728 0 9.117-3.623 9.117-11.104zm14.26.584v-1.051c0-12.624 8.065-19.52 19.052-19.52 11.22 0 19.052 6.896 19.052 19.52v1.051c0 12.39-7.714 19.052-19.052 19.052-12.156-.116-19.052-6.662-19.052-19.052zm28.169-.116v-.935c0-7.013-3.507-11.221-9.117-11.221-5.494 0-9.117 3.857-9.117 11.22v.936c0 6.779 3.506 10.636 9.117 10.636 5.61-.117 9.117-3.857 9.117-10.636zm22.792-1.403l-13.208-18.117h11.338l7.597 11.338 7.714-11.338h11.221l-13.441 18 14.143 19.636h-11.104l-8.65-12.506-8.415 12.506h-11.572l14.377-19.519z" fill="#000"/></g><path d="M656.524 509.97c7.346 0 13.299 7.183 13.299 16.048 0 8.868-5.953 16.047-13.299 16.047-7.345 0-13.292-7.18-13.292-16.047 0-8.865 5.947-16.048 13.292-16.048" fill="#FFF" fill-rule="nonzero"/><path d="M656.524 509.97c7.346 0 13.299 7.183 13.299 16.048 0 8.868-5.953 16.047-13.299 16.047-7.345 0-13.292-7.18-13.292-16.047 0-8.865 5.947-16.048 13.292-16.048z" stroke="#000" stroke-width="1.375"/><path d="M635.6 558.774c.19-.594.326-1.209.326-1.854 0-4.102-4.102-7.427-9.163-7.427-5.06 0-9.16 3.325-9.16 7.427 0 .645.132 1.26.325 1.854h17.673z" fill="#FFF" fill-rule="nonzero"/><path d="M635.6 558.774c.19-.594.326-1.209.326-1.854 0-4.102-4.102-7.427-9.163-7.427-5.06 0-9.16 3.325-9.16 7.427 0 .645.132 1.26.325 1.854h17.673z" stroke="#000" stroke-linecap="round" stroke-linejoin="round" stroke-width="1.375"/><path d="M667.688 558.774c.19-.594.323-1.209.323-1.854 0-4.102-4.103-7.427-9.164-7.427-5.06 0-9.16 3.325-9.16 7.427 0 .645.133 1.26.323 1.854h17.678z" fill="#FFF" fill-rule="nonzero"/><path d="M667.688 558.774c.19-.594.323-1.209.323-1.854 0-4.102-4.103-7.427-9.164-7.427-5.06 0-9.16 3.325-9.16 7.427 0 .645.133 1.26.323 1.854h17.678z" stroke="#000" stroke-linecap="round" stroke-linejoin="round" stroke-width="1.375"/><path d="M617.764 476.036c0 4.5-3.647 8.144-8.147 8.144a8.14 8.14 0 0 1-8.142-8.144c0-4.5 3.645-8.148 8.142-8.148 4.5 0 8.147 3.648 8.147 8.148" fill="#FFF" fill-rule="nonzero"/><path d="M617.764 476.036c0 4.5-3.647 8.144-8.147 8.144a8.14 8.14 0 0 1-8.142-8.144c0-4.5 3.645-8.148 8.142-8.148 4.5 0 8.147 3.648 8.147 8.148z" stroke="#000" stroke-width="1.375"/><path d="M684.385 476.036c0 4.5-3.647 8.144-8.147 8.144a8.14 8.14 0 0 1-8.142-8.144c0-4.5 3.645-8.148 8.142-8.148 4.5 0 8.147 3.648 8.147 8.148" fill="#FFF" fill-rule="nonzero"/><path d="M684.385 476.036c0 4.5-3.647 8.144-8.147 8.144a8.14 8.14 0 0 1-8.142-8.144c0-4.5 3.645-8.148 8.142-8.148 4.5 0 8.147 3.648 8.147 8.148z" stroke="#000" stroke-width="1.375"/><path d="M665.508 447.45l-16.288-3.835-5.987 18.923" stroke="#000" stroke-linecap="round" stroke-linejoin="round" stroke-width="1.375"/><path d="M629.1 509.97c7.345 0 13.295 7.183 13.295 16.048 0 8.868-5.95 16.047-13.295 16.047-7.343 0-13.293-7.18-13.293-16.047 0-8.865 5.95-16.048 13.293-16.048" fill="#FFF" fill-rule="nonzero"/><path d="M629.1 509.97c7.345 0 13.295 7.183 13.295 16.048 0 8.868-5.95 16.047-13.295 16.047-7.343 0-13.293-7.18-13.293-16.047 0-8.865 5.95-16.048 13.293-16.048z" stroke="#000" stroke-width="1.375"/><path d="M678.576 448.767a6.421 6.421 0 1 1-12.842-.002 6.421 6.421 0 0 1 12.842.002" fill="#FFF" fill-rule="nonzero"/><path d="M678.576 448.767a6.421 6.421 0 1 1-12.842-.002 6.421 6.421 0 0 1 12.842.002z" stroke="#000" stroke-width="1.375"/><path d="M638.247 558.783h9.012c8.006-4.166 13.938-19.11 13.938-36.957 0-21.07-8.26-38.148-18.444-38.148-10.188 0-18.444 17.079-18.444 38.148 0 17.847 5.932 32.791 13.938 36.957" fill="#FFF" fill-rule="nonzero"/><path d="M638.247 558.783h9.012c8.006-4.166 13.938-19.11 13.938-36.957 0-21.07-8.26-38.148-18.444-38.148-10.188 0-18.444 17.079-18.444 38.148 0 17.847 5.932 32.791 13.938 36.957z" stroke="#000" stroke-width="1.375"/><path d="M679.642 487.237c0 13.296-16.515 24.072-36.89 24.072-20.374 0-36.888-10.776-36.888-24.072 0-13.295 16.514-24.074 36.887-24.074 20.376 0 36.89 10.779 36.89 24.074" fill="#FFF" fill-rule="nonzero"/><path d="M679.642 487.237c0 13.296-16.515 24.072-36.89 24.072-20.374 0-36.888-10.776-36.888-24.072 0-13.295 16.514-24.074 36.887-24.074 20.376 0 36.89 10.779 36.89 24.074z" stroke="#000" stroke-width="1.375"/><path d="M633.05 558.774h19.882" stroke="#000" stroke-linecap="round" stroke-linejoin="round" stroke-width="1.375"/><path d="M702.763 510.912c0-1.338.401-2.402 1.209-3.192.808-.78 1.784-1.178 2.936-1.178 1.172 0 2.173.385 2.993 1.154.826.778 1.239 1.845 1.239 3.216v4.344h.19c1.268-2.219 2.932-4.223 5.003-6.017 2.07-1.787 4.241-2.734 6.508-2.827 1.272 0 2.393.422 3.376 1.254.98.835 1.477 1.869 1.477 3.11 0 1.453-.504 2.517-1.51 3.202-1.007.684-2.472 1.272-4.392 1.769-1.917.5-3.162.898-3.732 1.215-4.615 2.501-6.92 6.785-6.92 12.846v24.946c0 1.383-.39 2.456-1.167 3.216-.778.762-1.739 1.142-2.881 1.142-1.21 0-2.234-.398-3.072-1.197-.84-.804-1.257-1.929-1.257-3.36v-43.643z" fill="#000" fill-rule="nonzero"/><path d="M702.763 510.912c0-1.338.401-2.402 1.209-3.192.808-.78 1.784-1.178 2.936-1.178 1.172 0 2.173.385 2.993 1.154.826.778 1.239 1.845 1.239 3.216v4.344h.19c1.268-2.219 2.932-4.223 5.003-6.017 2.07-1.787 4.241-2.734 6.508-2.827 1.272 0 2.393.422 3.376 1.254.98.835 1.477 1.869 1.477 3.11 0 1.453-.504 2.517-1.51 3.202-1.007.684-2.472 1.272-4.392 1.769-1.917.5-3.162.898-3.732 1.215-4.615 2.501-6.92 6.785-6.92 12.846v24.946c0 1.383-.39 2.456-1.167 3.216-.778.762-1.739 1.142-2.881 1.142-1.21 0-2.234-.398-3.072-1.197-.84-.804-1.257-1.929-1.257-3.36v-43.643z" stroke="#000" stroke-width=".747"/><path d="M738.396 529.607h28.346c-.09-4.73-1.35-8.519-3.777-11.397-2.427-2.873-5.748-4.362-9.971-4.455-4.298 0-7.756 1.395-10.38 4.169-2.623 2.779-4.028 6.676-4.218 11.683m-8.575 2.694c.19-4.4 1.203-8.57 3.03-12.524 1.829-3.942 4.436-7.137 7.824-9.594 3.385-2.453 7.367-3.707 11.942-3.77 4.44 0 8.386 1.196 11.837 3.592 3.445 2.397 6.107 5.567 7.981 9.516 1.878 3.955 2.816 8.078 2.816 12.388 0 2.761-1.577 4.145-4.73 4.145h-32.125c.064 3.424.793 6.32 2.198 8.678 1.401 2.357 3.276 4.117 5.633 5.287 2.354 1.166 4.961 1.748 7.831 1.748 5.025 0 9.642-1.776 13.844-5.332 1.447-1.046 2.511-1.565 3.19-1.565.946 0 1.678.353 2.209 1.055.527.703.79 1.556.79 2.55 0 1.076-.417 2.11-1.249 3.102-1.896 2.01-4.581 3.768-8.057 5.275-3.475 1.507-7.215 2.26-11.218 2.26-4.196 0-7.843-.786-10.939-2.372-3.098-1.576-5.591-3.683-7.484-6.293a26.962 26.962 0 0 1-4.142-8.476 35.207 35.207 0 0 1-1.368-9.197c.081-.156.13-.274.154-.34.02-.076.033-.115.033-.133" fill="#000" fill-rule="nonzero"/><path d="M738.396 529.607h28.346c-.09-4.73-1.35-8.519-3.777-11.397-2.427-2.873-5.748-4.362-9.971-4.455-4.298 0-7.756 1.395-10.38 4.169-2.623 2.779-4.028 6.676-4.218 11.683zm-8.575 2.694c.19-4.4 1.203-8.57 3.03-12.524 1.829-3.942 4.436-7.137 7.824-9.594 3.385-2.453 7.367-3.707 11.942-3.77 4.44 0 8.386 1.196 11.837 3.592 3.445 2.397 6.107 5.567 7.981 9.516 1.878 3.955 2.816 8.078 2.816 12.388 0 2.761-1.577 4.145-4.73 4.145h-32.125c.064 3.424.793 6.32 2.198 8.678 1.401 2.357 3.276 4.117 5.633 5.287 2.354 1.166 4.961 1.748 7.831 1.748 5.025 0 9.642-1.776 13.844-5.332 1.447-1.046 2.511-1.565 3.19-1.565.946 0 1.678.353 2.209 1.055.527.703.79 1.556.79 2.55 0 1.076-.417 2.11-1.249 3.102-1.896 2.01-4.581 3.768-8.057 5.275-3.475 1.507-7.215 2.26-11.218 2.26-4.196 0-7.843-.786-10.939-2.372-3.098-1.576-5.591-3.683-7.484-6.293a26.962 26.962 0 0 1-4.142-8.476 35.207 35.207 0 0 1-1.368-9.197c.081-.156.13-.274.154-.34.02-.076.033-.115.033-.133z" stroke="#000" stroke-width=".747"/><path d="M789.565 532.612c0 5.227 1.127 9.685 3.388 13.37 2.252 3.684 5.621 5.616 10.092 5.782 3.562 0 6.447-.92 8.668-2.773 2.2-1.848 3.783-4.199 4.724-7.047.952-2.852 1.458-5.896 1.546-9.142 0-3.735-.603-7.053-1.818-9.959-1.205-2.903-2.89-5.148-5.04-6.725-2.155-1.573-4.587-2.363-7.306-2.363-3.207 0-5.865.95-7.99 2.821-2.122 1.884-3.68 4.254-4.67 7.105-.982 2.848-1.513 5.83-1.594 8.93zm27.45-19.258V487.99c0-1.326.413-2.363 1.236-3.12a4.173 4.173 0 0 1 2.918-1.136c1.245 0 2.276.377 3.107 1.133.826.757 1.242 1.857 1.242 3.304v66.577c0 1.372-.428 2.436-1.278 3.21-.847.772-1.875 1.155-3.071 1.155-1.064 0-2.029-.383-2.882-1.152-.847-.768-1.272-1.775-1.272-3.01v-2.78h-.196c-.913 1.854-2.405 3.442-4.485 4.78-2.077 1.336-4.883 2.053-8.418 2.162-4.537 0-8.524-1.107-11.946-3.328-3.427-2.215-6.08-5.305-7.972-9.275-1.881-3.96-2.858-8.457-2.936-13.497 0-3.605.525-7.032 1.58-10.288 1.057-3.26 2.55-6.103 4.473-8.539 1.923-2.426 4.231-4.331 6.917-5.706 2.689-1.377 5.637-2.067 8.84-2.067 5.779 0 10.436 2.315 13.947 6.941h.196z" fill="#000" fill-rule="nonzero"/><path d="M789.565 532.612c0 5.227 1.127 9.685 3.388 13.37 2.252 3.684 5.621 5.616 10.092 5.782 3.562 0 6.447-.92 8.668-2.773 2.2-1.848 3.783-4.199 4.724-7.047.952-2.852 1.458-5.896 1.546-9.142 0-3.735-.603-7.053-1.818-9.959-1.205-2.903-2.89-5.148-5.04-6.725-2.155-1.573-4.587-2.363-7.306-2.363-3.207 0-5.865.95-7.99 2.821-2.122 1.884-3.68 4.254-4.67 7.105-.982 2.848-1.513 5.83-1.594 8.93zm27.45-19.258V487.99c0-1.326.413-2.363 1.236-3.12a4.173 4.173 0 0 1 2.918-1.136c1.245 0 2.276.377 3.107 1.133.826.757 1.242 1.857 1.242 3.304v66.577c0 1.372-.428 2.436-1.278 3.21-.847.772-1.875 1.155-3.071 1.155-1.064 0-2.029-.383-2.882-1.152-.847-.768-1.272-1.775-1.272-3.01v-2.78h-.196c-.913 1.854-2.405 3.442-4.485 4.78-2.077 1.336-4.883 2.053-8.418 2.162-4.537 0-8.524-1.107-11.946-3.328-3.427-2.215-6.08-5.305-7.972-9.275-1.881-3.96-2.858-8.457-2.936-13.497 0-3.605.525-7.032 1.58-10.288 1.057-3.26 2.55-6.103 4.473-8.539 1.923-2.426 4.231-4.331 6.917-5.706 2.689-1.377 5.637-2.067 8.84-2.067 5.779 0 10.436 2.315 13.947 6.941h.196z" stroke="#000" stroke-width=".747"/><path d="M843.4 532.612c0 5.227 1.124 9.685 3.385 13.37 2.257 3.684 5.621 5.616 10.094 5.782 3.563 0 6.453-.92 8.657-2.773 2.215-1.848 3.792-4.199 4.735-7.047.947-2.852 1.462-5.896 1.543-9.142 0-3.735-.602-7.053-1.811-9.959-1.206-2.903-2.89-5.148-5.043-6.725-2.155-1.573-4.59-2.363-7.306-2.363-3.207 0-5.872.95-7.994 2.821-2.125 1.884-3.674 4.254-4.663 7.105-.989 2.848-1.519 5.83-1.597 8.93zm27.44-19.258V487.99c0-1.326.417-2.363 1.249-3.12a4.154 4.154 0 0 1 2.911-1.136c1.242 0 2.285.377 3.108 1.133.829.757 1.239 1.857 1.239 3.304v66.577c0 1.372-.425 2.436-1.272 3.21-.85.772-1.881 1.155-3.075 1.155-1.067 0-2.028-.383-2.878-1.152-.85-.768-1.281-1.775-1.281-3.01v-2.78h-.187c-.916 1.854-2.408 3.442-4.485 4.78-2.074 1.336-4.88 2.053-8.419 2.162-4.54 0-8.52-1.107-11.948-3.328-3.43-2.215-6.083-5.305-7.967-9.275-1.88-3.96-2.863-8.457-2.938-13.497 0-3.605.527-7.032 1.582-10.288 1.058-3.26 2.544-6.103 4.467-8.539 1.926-2.426 4.232-4.331 6.918-5.706 2.688-1.377 5.636-2.067 8.837-2.067 5.781 0 10.435 2.315 13.953 6.941h.187z" fill="#000" fill-rule="nonzero"/><path d="M843.4 532.612c0 5.227 1.124 9.685 3.385 13.37 2.257 3.684 5.621 5.616 10.094 5.782 3.563 0 6.453-.92 8.657-2.773 2.215-1.848 3.792-4.199 4.735-7.047.947-2.852 1.462-5.896 1.543-9.142 0-3.735-.602-7.053-1.811-9.959-1.206-2.903-2.89-5.148-5.043-6.725-2.155-1.573-4.59-2.363-7.306-2.363-3.207 0-5.872.95-7.994 2.821-2.125 1.884-3.674 4.254-4.663 7.105-.989 2.848-1.519 5.83-1.597 8.93zm27.44-19.258V487.99c0-1.326.417-2.363 1.249-3.12a4.154 4.154 0 0 1 2.911-1.136c1.242 0 2.285.377 3.108 1.133.829.757 1.239 1.857 1.239 3.304v66.577c0 1.372-.425 2.436-1.272 3.21-.85.772-1.881 1.155-3.075 1.155-1.067 0-2.028-.383-2.878-1.152-.85-.768-1.281-1.775-1.281-3.01v-2.78h-.187c-.916 1.854-2.408 3.442-4.485 4.78-2.074 1.336-4.88 2.053-8.419 2.162-4.54 0-8.52-1.107-11.948-3.328-3.43-2.215-6.083-5.305-7.967-9.275-1.88-3.96-2.863-8.457-2.938-13.497 0-3.605.527-7.032 1.582-10.288 1.058-3.26 2.544-6.103 4.467-8.539 1.926-2.426 4.232-4.331 6.918-5.706 2.688-1.377 5.636-2.067 8.837-2.067 5.781 0 10.435 2.315 13.953 6.941h.187z" stroke="#000" stroke-width=".747"/><path d="M916.947 514.274h-3.753c-1.205 0-2.173-.344-2.902-1.028-.724-.684-1.143-1.534-1.27-2.541.25-2.52 1.643-3.78 4.172-3.78h3.753V495.43c0-1.254.404-2.23 1.206-2.924.804-.687 1.781-1.034 2.947-1.034 1.236 0 2.276.35 3.108 1.05.829.702 1.251 1.738 1.251 3.119v11.285h3.747c1.293 0 2.275.35 2.95 1.04.679.693 1.02 1.6 1.02 2.74 0 .964-.341 1.796-.992 2.502-.666.708-1.52 1.067-2.574 1.067h-4.151v40.655c0 1.293-.45 2.315-1.335 3.065-.883.748-1.963 1.119-3.21 1.119-1.116 0-2.065-.371-2.819-1.119-.76-.75-1.148-1.835-1.148-3.249v-40.471z" fill="#000" fill-rule="nonzero"/><path d="M916.947 514.274h-3.753c-1.205 0-2.173-.344-2.902-1.028-.724-.684-1.143-1.534-1.27-2.541.25-2.52 1.643-3.78 4.172-3.78h3.753V495.43c0-1.254.404-2.23 1.206-2.924.804-.687 1.781-1.034 2.947-1.034 1.236 0 2.276.35 3.108 1.05.829.702 1.251 1.738 1.251 3.119v11.285h3.747c1.293 0 2.275.35 2.95 1.04.679.693 1.02 1.6 1.02 2.74 0 .964-.341 1.796-.992 2.502-.666.708-1.52 1.067-2.574 1.067h-4.151v40.655c0 1.293-.45 2.315-1.335 3.065-.883.748-1.963 1.119-3.21 1.119-1.116 0-2.065-.371-2.819-1.119-.76-.75-1.148-1.835-1.148-3.249v-40.471z" stroke="#000" stroke-width=".747"/><path d="M902.218 492.544a6.958 6.958 0 1 1-13.916 0 6.958 6.958 0 1 1 13.916 0" fill="#FFF" fill-rule="nonzero"/><path d="M902.218 492.544a6.958 6.958 0 1 1-13.916 0 6.958 6.958 0 1 1 13.916 0z" stroke="#000" stroke-width="2"/><path d="M895.27 510.453v44.586" stroke="#000" stroke-linecap="round" stroke-width="4.2"/><path d="M634.257 482.538a4.311 4.311 0 1 1-8.623-.002 4.311 4.311 0 0 1 8.623.002" fill="#FF4500" fill-rule="nonzero"/><path d="M634.257 482.538a4.311 4.311 0 1 1-8.623-.002 4.311 4.311 0 0 1 8.623.002z" stroke="#FF4500" stroke-width="1.375"/><path d="M660.247 482.538a4.31 4.31 0 1 1-8.62 0 4.31 4.31 0 1 1 8.62 0" fill="#FF4500" fill-rule="nonzero"/><path d="M660.247 482.538a4.31 4.31 0 1 1-8.62 0 4.31 4.31 0 1 1 8.62 0z" stroke="#FF4500" stroke-width="1.375"/><path d="M630.187 498.318c3.213 3.213 8.398 3.831 12.696 3.831M655.672 498.318c-3.216 3.213-8.394 3.831-12.695 3.831" stroke="#000" stroke-linecap="round" stroke-width="1.375"/><g fill="#11110F" fill-rule="nonzero"><path d="M123.685 176.07H96.772c-.694 0-1.258.564-1.258 1.259v13.158c0 .694.564 1.26 1.258 1.26h10.499v16.347s-2.357.804-8.875.804c-7.69 0-18.43-2.81-18.43-26.43 0-23.625 11.184-26.733 21.685-26.733 9.09 0 13.006 1.6 15.497 2.371.783.24 1.507-.54 1.507-1.234l3.003-12.714c0-.324-.11-.716-.481-.982-1.012-.722-7.185-4.176-22.78-4.176C80.428 139 62 146.644 62 183.39s21.1 42.222 38.88 42.222c14.723 0 23.654-6.291 23.654-6.291.368-.204.408-.718.408-.954v-41.038c0-.695-.563-1.259-1.257-1.259zM262.31 143.6c0-.7-.555-1.266-1.25-1.266h-15.153a1.26 1.26 0 0 0-1.255 1.266l.004 29.285h-23.62V143.6c0-.7-.558-1.266-1.251-1.266h-15.153c-.69 0-1.252.565-1.252 1.266v79.294c0 .7.562 1.27 1.252 1.27h15.153c.693 0 1.25-.57 1.25-1.27v-33.917h23.62l-.04 33.917c0 .7.562 1.27 1.255 1.27h15.19c.694 0 1.248-.57 1.25-1.27V143.6zM152.232 154.2c0-5.456-4.375-9.866-9.772-9.866-5.392 0-9.77 4.41-9.77 9.866 0 5.45 4.378 9.872 9.77 9.872 5.397 0 9.772-4.421 9.772-9.872zm-1.203 52.008v-36.603a1.26 1.26 0 0 0-1.253-1.263H134.67c-.693 0-1.313.715-1.313 1.41v52.44c0 1.542.96 2 2.203 2h13.61c1.493 0 1.86-.733 1.86-2.024v-15.96zm169.197-37.866H305.19a1.26 1.26 0 0 0-1.252 1.268v38.88s-3.82 2.796-9.242 2.796c-5.422 0-6.86-2.46-6.86-7.77v-33.906c0-.7-.561-1.268-1.251-1.268h-15.262c-.689 0-1.253.568-1.253 1.268v36.474c0 15.77 8.789 19.627 20.88 19.627 9.918 0 17.915-5.48 17.915-5.48s.381 2.888.553 3.23c.173.342.622.687 1.107.687l9.709-.043c.689 0 1.253-.57 1.253-1.266l-.005-53.23c0-.699-.562-1.267-1.255-1.267zm34.647 42.974c-5.216-.16-8.754-2.526-8.754-2.526v-25.11s3.49-2.14 7.773-2.523c5.415-.485 10.633 1.151 10.633 14.069 0 13.621-2.355 16.31-9.652 16.09zm5.931-44.677c-8.54 0-14.35 3.81-14.35 3.81V143.6c0-.7-.56-1.266-1.25-1.266h-15.197c-.69 0-1.252.565-1.252 1.266v79.294c0 .7.562 1.27 1.254 1.27h10.544c.475 0 .834-.245 1.1-.674.262-.426.64-3.656.64-3.656s6.214 5.889 17.977 5.889c13.81 0 21.73-7.005 21.73-31.447s-12.649-27.636-21.196-27.636zm-166.16 1.567h-11.368l-.017-15.017c0-.568-.293-.852-.95-.852h-15.49c-.602 0-.926.265-.926.843V168.7s-7.762 1.874-8.287 2.025a1.258 1.258 0 0 0-.908 1.209v9.751c0 .702.56 1.268 1.253 1.268h7.942v23.46c0 17.424 12.223 19.136 20.47 19.136 3.77 0 8.278-1.21 9.022-1.485.45-.165.711-.631.711-1.137l.013-10.727c0-.7-.59-1.266-1.256-1.266-.663 0-2.357.27-4.102.27-5.583 0-7.475-2.597-7.475-5.957v-22.294h11.367c.693 0 1.254-.566 1.254-1.268v-12.214c0-.7-.56-1.264-1.254-1.264z"/></g></g></svg>